# xmcd
#
# Track frame offsets: 
#        150
#        1892
#        7992
#        11642
#        15355
#        29155
#        50225
#        76842
#        84342
#        92855
#        96260
#        113050
#        142192
#        150145
#        169980
#        195642
#        204662
#        209032
#        226405
#        237680
#        254130
#        261515
#        274375
#        303767
#
# Disc length: 4467 seconds
#
# Revision: 0
# Processed by: cddbd v1.4PL0 Copyright (c) Steve Scherf et al.
# Submitted via: ExactAudioCopy v0.90b3
#
DISCID=50117118
DTITLE=William Lee Johnson - Progressive Blues Harmonica
DYEAR=1992
DGENRE=Blues
TTITLE0=Lesson 2 Ex 1
TTITLE1=Lesson 3 Ex 2a-3d
TTITLE2=Lesson 4 Ex 4-6
TTITLE3=Lesson 5 Ex 7
TTITLE4=Lesson 7 Ex 8-13
TTITLE5=Lesson 9 Ex 14-16
TTITLE6=Lesson 10 Ex 17-20
TTITLE7=Lesson 11 Ex 21-23
TTITLE8=Lesson 12 Ex 24a-24b
TTITLE9=Lesson 13 Ex 25-27b
TTITLE10=Lesson 14 Ex 28-34
TTITLE11=Lesson 15 Ex 35-38
TTITLE12=Lesson 16 Ex 39-45
TTITLE13=Lesson 17 Ex 46a-50
TTITLE14=Lesson 18 Ex 51-54
TTITLE15=Lesson 19 Ex 55-58
TTITLE16=Lesson 20 Ex 59-60
TTITLE17=Lesson 21 Ex 61-66b
TTITLE18=Lesson 22 Ex 67-70
TTITLE19=Lesson 23 Ex 71a-73f
TTITLE20=Lesson 24 Ex 74-79
TTITLE21=Lesson 25 Ex 80a-88
TTITLE22=Lesson 26 Ex 89-92
TTITLE23=Lesson 27 Ex 93-98
EXTD=
EXTT0=
EXTT1=
EXTT2=
EXTT3=
EXTT4=
EXTT5=
EXTT6=
EXTT7=
EXTT8=
EXTT9=
EXTT10=
EXTT11=
EXTT12=
EXTT13=
EXTT14=
EXTT15=
EXTT16=
EXTT17=
EXTT18=
EXTT19=
EXTT20=
EXTT21=
EXTT22=
EXTT23=
PLAYORDER=
